<svg width="68" height="47" viewBox="0 0 68 47" fill="none" xmlns="http://www.w3.org/2000/svg">
<path fill-rule="evenodd" clip-rule="evenodd" d="M33.4332 0H34.5668C47.8771 0 68 5.35164 68 13.4185V36.3004C68 42.6509 59.0367 46.033 52.5665 46.033C51.9157 46.033 51.3881 45.5054 51.3881 44.8546V28.4107C45.7614 26.6334 39.9006 25.7035 34 25.6535C28.0954 25.6535 22.2271 26.5827 16.6119 28.4078V44.8546C16.6119 45.5054 16.0843 46.033 15.4335 46.033C8.96333 46.033 0 42.6503 0 36.3004V13.4185C0 5.35164 20.1229 0 33.4332 0ZM14.254 43.6376V23.1293C13.7574 23.1068 13.2758 23.0666 12.8006 23.0171C12.7689 23.0137 12.7371 23.0105 12.7052 23.0072C12.6445 23.0011 12.5836 22.9949 12.5232 22.9877C12.0687 22.9359 11.6251 22.8715 11.1929 22.795C11.1381 22.7856 11.0841 22.7753 11.0301 22.7649C11.0042 22.7599 10.9783 22.7549 10.9524 22.7501C10.5376 22.6724 10.1314 22.5861 9.73722 22.4883C9.72024 22.4842 9.70313 22.4803 9.68608 22.4765C9.6673 22.4723 9.64859 22.4681 9.6302 22.4636C9.21765 22.3594 8.82006 22.2409 8.4311 22.1154C8.41066 22.1088 8.39023 22.1022 8.36979 22.0957C8.30852 22.0759 8.24725 22.0562 8.18598 22.0355C7.80853 21.9077 7.44029 21.7725 7.087 21.6269C7.05557 21.6143 7.02545 21.601 6.99525 21.5877C6.96906 21.5761 6.94279 21.5645 6.91554 21.5533C6.58699 21.4141 6.26938 21.2679 5.9627 21.1143C5.94306 21.1046 5.92312 21.0951 5.90317 21.0856C5.87462 21.0719 5.84605 21.0583 5.81828 21.0441C5.49376 20.8772 5.18363 20.7017 4.88443 20.5211C4.81769 20.4808 4.75267 20.4405 4.68708 20.3997C4.39248 20.215 4.10766 20.0257 3.83896 19.8283C3.82042 19.8148 3.80273 19.8009 3.78497 19.787C3.77021 19.7754 3.7554 19.7638 3.73999 19.7523C3.49373 19.5653 3.2584 19.3737 3.03342 19.1775C3.01713 19.1634 3.00069 19.1493 2.98423 19.1353C2.9565 19.1115 2.92874 19.0878 2.90166 19.0636C2.71006 18.8939 2.52881 18.7218 2.35677 18.5446V36.3033C2.35677 40.5522 8.93994 43.2759 14.254 43.6376ZM53.7449 43.6348C59.0585 43.2735 65.6432 40.5496 65.6432 36.3004L65.6404 18.5481C65.4689 18.7253 65.2853 18.8973 65.096 19.0676C65.0673 19.0933 65.0375 19.1185 65.0077 19.1437C64.9928 19.1563 64.9779 19.1689 64.9631 19.1816C64.7399 19.3778 64.504 19.5688 64.256 19.7546C64.243 19.7645 64.2304 19.7745 64.2178 19.7844C64.1974 19.8005 64.177 19.8167 64.1553 19.8323C63.8872 20.0291 63.6041 20.2184 63.3095 20.4025C63.2433 20.444 63.1766 20.4848 63.1098 20.5257C62.8112 20.7058 62.5016 20.8813 62.1783 21.047C62.1498 21.0615 62.1206 21.0755 62.0914 21.0894C62.0709 21.0992 62.0505 21.1089 62.0304 21.1189C61.7249 21.2719 61.409 21.4175 61.0827 21.5556C61.024 21.5803 60.9648 21.6062 60.9061 21.631C60.5534 21.776 60.1869 21.9106 59.81 22.0383C59.7277 22.0665 59.6449 22.093 59.5608 22.1201C59.173 22.2455 58.7777 22.3634 58.3652 22.4676C58.3509 22.471 58.3362 22.4743 58.3214 22.4777C58.2988 22.4828 58.2761 22.4879 58.2542 22.4935C57.8623 22.5907 57.4578 22.677 57.0458 22.7541C57.0173 22.7596 56.9888 22.7651 56.9604 22.7706C56.9076 22.7808 56.8548 22.791 56.8013 22.8007C56.3692 22.8761 55.9267 22.94 55.4739 22.9929C55.4112 22.9999 55.3477 23.0064 55.2841 23.0129C55.2537 23.016 55.2234 23.0191 55.1931 23.0223C54.7201 23.0712 54.2397 23.1114 53.7449 23.1339V43.6348ZM31.694 13.7032C31.1842 13.1414 30.4506 12.7824 29.4934 12.6264L31.9593 9.81719V8.1785H24.3121V10.2074H28.9628L26.7155 12.7512V14.4211H27.8704C29.2333 14.4211 29.9148 14.8685 29.9148 15.7633C29.9148 16.2107 29.7327 16.5592 29.3686 16.8089C29.0044 17.0482 28.505 17.1679 27.8704 17.1679C27.2981 17.1679 26.7363 17.0846 26.1849 16.9182C25.6438 16.7413 25.1652 16.4968 24.7491 16.1847L23.7658 18.1199C24.2861 18.4944 24.9155 18.7857 25.6542 18.9938C26.4034 19.1915 27.1629 19.2904 27.9328 19.2904C28.9212 19.2904 29.7536 19.1291 30.4298 18.8066C31.1165 18.484 31.6263 18.0574 31.9593 17.5268C32.2922 16.9858 32.4587 16.3979 32.4587 15.7633C32.4587 14.9413 32.2038 14.2546 31.694 13.7032ZM39.2756 8.1785H34.3127V19.1031H39.2756C40.4617 19.1031 41.5073 18.8794 42.4125 18.432C43.3281 17.9742 44.0356 17.3343 44.535 16.5124C45.0448 15.6905 45.2997 14.7333 45.2997 13.6408C45.2997 12.5483 45.0448 11.5911 44.535 10.7692C44.0356 9.94724 43.3281 9.31258 42.4125 8.86519C41.5073 8.4074 40.4617 8.1785 39.2756 8.1785ZM41.757 16.1222C41.1119 16.7257 40.2432 17.0274 39.1507 17.0274H36.841V10.2542H39.1507C40.2432 10.2542 41.1119 10.5611 41.757 11.175C42.4125 11.7784 42.7402 12.6004 42.7402 13.6408C42.7402 14.6812 42.4125 15.5084 41.757 16.1222Z" fill="#11181D"/>
<path d="M27.9186 34.2558H25.0783V40.6545H22.6592V34.2558H19.8188V32.2582H27.9186V34.2558Z" fill="#11181D"/>
<path d="M37.7046 32.2582L33.9122 41.1695C33.5272 42.1371 33.0486 42.8186 32.4764 43.2139C31.9145 43.6093 31.233 43.807 30.4319 43.807C29.9949 43.807 29.5631 43.7394 29.1366 43.6041C28.71 43.4689 28.3614 43.2816 28.0909 43.0423L28.9805 41.3099C29.1678 41.4764 29.3811 41.6065 29.6204 41.7001C29.8701 41.7938 30.1146 41.8406 30.3539 41.8406C30.6868 41.8406 30.9573 41.7573 31.1654 41.5909C31.3735 41.4348 31.5608 41.1695 31.7273 40.7949L31.7585 40.7169L28.1221 32.2582H30.6348L32.9914 37.9545L35.3636 32.2582H37.7046Z" fill="#11181D"/>
<path d="M43.8263 32.1333C44.6067 32.1333 45.3142 32.3154 45.9488 32.6795C46.5939 33.0333 47.0985 33.5379 47.4627 34.1934C47.8268 34.8384 48.0089 35.5928 48.0089 36.4563C48.0089 37.3199 47.8268 38.0794 47.4627 38.7349C47.0985 39.3799 46.5939 39.8846 45.9488 40.2487C45.3142 40.6025 44.6067 40.7793 43.8263 40.7793C42.7547 40.7793 41.9119 40.4412 41.2981 39.7649V43.6821H38.8635V32.2582H41.1888V33.2258C41.7923 32.4975 42.6715 32.1333 43.8263 32.1333ZM43.405 38.7817C44.0292 38.7817 44.539 38.5736 44.9344 38.1574C45.3402 37.7308 45.5431 37.1638 45.5431 36.4563C45.5431 35.7488 45.3402 35.187 44.9344 34.7708C44.539 34.3442 44.0292 34.1309 43.405 34.1309C42.7807 34.1309 42.2657 34.3442 41.8599 34.7708C41.4646 35.187 41.2669 35.7488 41.2669 36.4563C41.2669 37.1638 41.4646 37.7308 41.8599 38.1574C42.2657 38.5736 42.7807 38.7817 43.405 38.7817Z" fill="#11181D"/>
</svg>
