<svg width="46" height="52" viewBox="0 0 46 52" fill="none" xmlns="http://www.w3.org/2000/svg">
<path d="M10.0653 8.61384H29.4465C30.0409 8.61384 29.4465 8.61384 30.5233 8.61384V5.38364C30.5233 3.60269 30.5233 3.82839 30.5233 2.15344H23.4729C22.7127 0.839853 21.3022 0 19.7559 0C18.2097 0 16.7992 0.839853 16.0391 2.15344H9.1085C9.10849 4.30694 8.98865 3.60269 8.98865 5.38364V8.61384C10.5441 8.61384 9.47096 8.61384 10.0653 8.61384Z" fill="white"/>
<path d="M39.1371 25.5497V7.53705C39.1371 5.7561 39.1371 6.22094 39.1371 4.30685C37.3562 4.30685 33.7535 4.30685 33.7535 4.30685C33.1591 4.30685 33.7535 4.30685 32.6767 4.3069V7.53705C32.6767 9.318 32.6767 8.61369 32.6767 10.7673H6.8351C6.8351 9.09223 6.8351 9.318 6.8351 7.53705V4.30664C6.23721 4.30674 6.35269 4.30675 5.75833 4.30675C5.75833 4.30675 2.15567 4.30675 0.374715 4.30675C0.37469 6.22094 0.374695 5.756 0.374695 7.53695V48.4529C0.374695 50.2339 0.494625 49.7689 0.494626 51.6831H19.5767C19.5767 50.7258 19.5767 51.2007 19.5767 50.6064V45.9404C19.5767 45.0897 19.5767 44.9833 19.5767 44.5047L37.929 26.7867C38.3935 26.3285 38.5093 26.1928 39.1371 25.5497Z" fill="white"/>
<path d="M45.2832 32.6165L40.2142 27.5479C39.9824 27.7895 39.8736 27.8896 39.4537 28.3095L35.9091 31.8542L41.7385 37.6836L46 33.422C45.5754 32.9152 45.7025 33.0797 45.2832 32.6165Z" fill="white"/>
<path d="M22.2238 45.5371C22.0235 45.7395 21.9094 46.0131 21.9094 46.2994V50.6064C21.9094 51.2008 22.3918 51.6832 22.9861 51.6832H27.2931C27.5795 51.6832 27.853 51.569 28.0554 51.3687L40.2139 39.2103L34.3845 33.3809L22.2238 45.5371Z" fill="white"/>
</svg>
