<svg width="51" height="36" viewBox="0 0 51 36" fill="none" xmlns="http://www.w3.org/2000/svg">
<path d="M33.7766 18.2682L50.9547 29.4281V6.63694L33.7766 18.2682Z" fill="white"/>
<path d="M0 6.63694V29.4281L17.1781 18.2682L0 6.63694Z" fill="white"/>
<path d="M50.9547 0H0.0954404C0.0954289 1.5 3.25407e-08 0.75 0.0954289 2.78508L25.4773 19.9701L50.8591 2.78508C50.9547 1.5 50.9547 0.75 50.9547 0Z" fill="white"/>
<path d="M30.8594 20.2451L26.3531 23.2953C26.0855 23.4753 25.783 23.5637 25.4773 23.5637C25.1715 23.5637 24.869 23.4753 24.6015 23.2953L20.0952 20.2419L0.101813 33.2378C0 34.5 0.101813 34.5 0.101749 36C0.101749 36 49.3719 36 50.9547 36C50.9547 34.5 51.0566 34.2622 50.9547 33L30.8594 20.2451Z" fill="white"/>
</svg>
