<svg width="65" height="55" viewBox="0 0 65 55" fill="none" xmlns="http://www.w3.org/2000/svg">
<path d="M50.7358 19.0078V43.6036H29.2729V49.3025H45.5854L51.3662 54.9022L57.1465 49.3025H64.5V19.0078H50.7358Z" fill="white"/>
<path d="M29.4795 20.4838C29.4795 17.4191 26.9062 14.9263 23.7432 14.9263C20.5801 14.9263 18.0063 17.4191 18.0063 20.4838C18.0063 23.5481 20.5801 26.0409 23.7432 26.0409C26.9062 26.0409 29.4795 23.5481 29.4795 20.4838Z" fill="white"/>
<path d="M46.9858 39.9708V0.996094H0.5V39.9708H7.85352L13.6338 45.5709L19.4146 39.9708H46.9858ZM21.8682 32.7009V29.4924C20.6426 29.2535 19.5024 28.7847 18.4961 28.1353L16.1514 30.4067L13.4995 27.8382L15.8447 25.5663C15.1738 24.5919 14.6899 23.4869 14.4434 22.3001H11.1313V18.6673H14.4434C14.6904 17.48 15.1743 16.3755 15.8447 15.4006L13.4995 13.1286L16.1514 10.5601L18.4961 12.8316C19.5024 12.1821 20.6426 11.7134 21.8682 11.4745V8.26598H25.6182V11.4745C26.8433 11.7134 27.9839 12.1821 28.9897 12.8316L31.335 10.5601L33.9863 13.1286L31.6416 15.4006C32.312 16.375 32.7959 17.4795 33.0425 18.6668H36.3545V22.2996H33.0425C32.7959 23.4869 32.312 24.5914 31.6416 25.5663L33.9863 27.8378L31.335 30.4067L28.9897 28.1348C27.9839 28.7847 26.8433 29.2535 25.6177 29.4924V32.7009H21.8682Z" fill="white"/>
</svg>
