<svg width="16" height="12" viewBox="0 0 16 12" fill="none" xmlns="http://www.w3.org/2000/svg">
<path d="M6.69308 9.71258C6.05161 9.71258 5.52972 10.2257 5.52972 10.8563C5.52972 11.4869 6.05161 12 6.69308 12C7.33456 12 7.85645 11.4869 7.85645 10.8563C7.85645 10.2257 7.33456 9.71258 6.69308 9.71258Z" fill="#EE2E24"/>
<path d="M14.2549 9.71258C13.6135 9.71258 13.0916 10.2257 13.0916 10.8563C13.0916 11.4869 13.6135 12 14.2549 12C14.8964 12 15.4183 11.4869 15.4183 10.8563C15.4183 10.2257 14.8964 9.71258 14.2549 9.71258Z" fill="#EE2E24"/>
<path d="M4.97088 2.29042H14.255L16 8.7111L4.36637 9.14074C4.22342 8.57853 2.79356 3.02435 2.5978 2.25461H1.16336L0 0H3.78469L4.97088 2.29042Z" fill="#EE2E24"/>
</svg>
