<svg width="65" height="52" viewBox="0 0 65 52" fill="none" xmlns="http://www.w3.org/2000/svg">
<path d="M21.1 24.55C23.6 25.65 25.55 27.3 26.95 29.5C28.35 31.7 29.05 34.3 29.05 37.3C29.05 41.6 27.7 45.1 25 47.8C22.3 50.4 18.85 51.7 14.65 51.7C10.45 51.7 6.95 50.35 4.15 47.65C1.45 44.95 0.1 41.5 0.1 37.3C0.1 35.3 0.35 33.3 0.85 31.3C1.35 29.3 2.45 26.3 4.15 22.3L12.85 0.699993H27.7L21.1 24.55ZM56.5 24.55C59 25.65 60.95 27.3 62.35 29.5C63.75 31.7 64.45 34.3 64.45 37.3C64.45 41.6 63.1 45.1 60.4 47.8C57.7 50.4 54.25 51.7 50.05 51.7C45.85 51.7 42.35 50.35 39.55 47.65C36.85 44.95 35.5 41.5 35.5 37.3C35.5 35.3 35.75 33.3 36.25 31.3C36.75 29.3 37.85 26.3 39.55 22.3L48.25 0.699993H63.1L56.5 24.55Z" fill="#EE2E24"/>
</svg>
