<svg width="30" height="30" viewBox="0 0 30 30" fill="none" xmlns="http://www.w3.org/2000/svg">
<path fill-rule="evenodd" clip-rule="evenodd" d="M22 29H0V0H14V6V8H16L22 8V29ZM16 0V6H22L16 0Z" fill="#11181D"/>
<path d="M22.6568 27.0715L22.6569 27.0715L27.6066 22.1218L28.3137 21.4147L27.6066 20.7076L26.1924 19.2933L25.4852 18.5862L24.7781 19.2933L24 20.0715V14V13H23H21H20V14V20.1719L19.1213 19.2932L18.4142 18.5861L17.7071 19.2932L16.2929 20.7074L15.5858 21.4145L16.2929 22.1216L19.1213 24.9502L19.1213 24.9502L19.8284 25.6573L21.2169 27.0458L21.2426 27.0715L21.2426 27.0715L21.9497 27.7787L22.6568 27.0715Z" fill="#EE2E24" stroke="white" stroke-width="2"/>
</svg>
