<svg width="16" height="29" viewBox="0 0 16 29" fill="none" xmlns="http://www.w3.org/2000/svg">
<path d="M15.3104 0.437494L11.5614 0.431641C7.3496 0.431641 4.62772 3.14928 4.62772 7.35555V10.5479H0.858289C0.532566 10.5479 0.268799 10.8049 0.268799 11.1219V15.7473C0.268799 16.0643 0.532867 16.321 0.858289 16.321H4.62772V27.9923C4.62772 28.3093 4.89149 28.566 5.21721 28.566H10.1352C10.461 28.566 10.7247 28.309 10.7247 27.9923V16.321H13.5691C13.8948 16.321 14.1585 16.0643 14.1585 15.7473L15.7234 11.1219C15.7234 10.9697 15.6611 10.8239 15.5507 10.7162C15.4404 10.6085 15.29 10.5479 15.1336 10.5479H10.7247V7.84171C10.7247 6.54099 11.0432 5.88068 12.7843 5.88068L15.3098 5.8798C15.6352 5.8798 15.899 5.62282 15.899 5.30612V1.01117C15.899 0.69477 15.6355 0.43808 15.3104 0.437494Z" fill="#11181D"/>
</svg>
