<svg width="29" height="29" viewBox="0 0 29 29" fill="none" xmlns="http://www.w3.org/2000/svg">
<path d="M6.325 9.22266H0.0334473V28.565H6.325V9.22266Z" fill="#11181D"/>
<path d="M23.4624 9.44949C23.3955 9.42839 23.3322 9.40553 23.2619 9.38619C23.1775 9.36684 23.0931 9.35102 23.0069 9.33695C22.6728 9.27013 22.3071 9.22266 21.878 9.22266C18.21 9.22266 15.8837 11.8901 15.117 12.9206V9.22266H8.82544V28.565H15.117V18.0147C15.117 18.0147 19.8717 11.3925 21.878 16.2563C21.878 20.5977 21.878 28.565 21.878 28.565H28.1678V15.5124C28.1678 12.59 26.165 10.1546 23.4624 9.44949Z" fill="#11181D"/>
<path d="M3.11065 6.58604C4.81013 6.58604 6.18784 5.20833 6.18784 3.50884C6.18784 1.80935 4.81013 0.431641 3.11065 0.431641C1.41116 0.431641 0.0334473 1.80935 0.0334473 3.50884C0.0334473 5.20833 1.41116 6.58604 3.11065 6.58604Z" fill="#11181D"/>
</svg>
