<svg width="211" height="32" viewBox="0 0 211 32" fill="none" xmlns="http://www.w3.org/2000/svg">
<path fill-rule="evenodd" clip-rule="evenodd" d="M39.396 25.0773V9.33465C39.396 8.63807 39.396 7.94149 40.0269 7.24492C40.6578 6.618 41.499 6.54834 42.1299 6.54834H51.0325C52.0139 6.54834 53.6262 6.54834 54.7478 7.66287C56.0096 8.84705 56.1498 10.9368 56.1498 12.5389C56.1498 14.0714 56.0096 16.4397 54.5375 17.6239C53.8365 18.1812 52.785 18.5295 51.6634 18.5295H42.901V25.0773H39.396ZM49.6306 15.7432C50.4017 15.7432 51.3129 15.7432 51.9438 15.0466C52.5046 14.4197 52.5747 13.2355 52.5747 12.5389C52.5747 11.703 52.5046 10.5885 51.8737 9.96157C51.2428 9.33465 50.2615 9.33465 49.7007 9.33465H44.0226C43.8123 9.33465 43.4618 9.33465 43.1814 9.54362C42.9711 9.7526 42.9711 10.1009 42.9711 10.4492V15.7432H49.6306Z" fill="#006FBA"/>
<path fill-rule="evenodd" clip-rule="evenodd" d="M61.8278 25.0773L64.071 20.9675L56.1498 6.54834H60.0053L65.8936 17.7632L71.5717 6.54834H75.4272L65.6132 25.0773H61.8278Z" fill="#006FBA"/>
<path fill-rule="evenodd" clip-rule="evenodd" d="M83.2783 25.0765C81.5258 25.0765 79.0724 24.8675 77.3199 22.9171C75.5674 20.9667 75.4272 18.1107 75.4272 16.0906C75.4272 13.4436 75.6375 10.727 77.2498 8.91589C79.1425 6.7565 82.0165 6.61719 83.3484 6.61719H90.8491V9.4035H85.0308C82.9278 9.4035 81.1753 9.54281 80.1238 11.1449C79.5631 11.9808 79.0724 13.374 79.0724 16.0906C79.0724 18.8769 79.5631 19.9915 79.9837 20.6184C80.965 22.0812 82.6474 22.3598 84.8906 22.3598H91.1996V25.1461H83.2783V25.0765Z" fill="#006FBA"/>
<path fill-rule="evenodd" clip-rule="evenodd" d="M93.5129 6.54834H97.0179V25.0773H93.5129V6.54834ZM106.902 25.0773L99.2611 17.9722C98.1395 16.997 97.9993 16.0914 97.9993 15.6038C97.9993 15.2556 98.1395 14.4197 98.9807 13.5141L106.061 6.54834H110.407L102.346 14.141C101.715 14.6983 101.364 15.1859 101.364 15.6038C101.364 16.1611 101.995 16.788 102.556 17.2756L111.388 25.0773H106.902Z" fill="#006FBA"/>
<path fill-rule="evenodd" clip-rule="evenodd" d="M117.277 8.08031C117.627 7.24442 118.188 6.33887 120.151 6.33887C122.114 6.33887 122.604 7.24442 123.025 8.08031L130.245 25.0768H126.53L120.642 10.2397C120.571 10.0307 120.501 9.68244 120.221 9.68244C119.941 9.68244 119.87 10.0307 119.8 10.2397L113.912 25.0768H110.197L117.277 8.08031Z" fill="#006FBA"/>
<path fill-rule="evenodd" clip-rule="evenodd" d="M145.176 25.077L145.317 11.0061C145.317 10.7275 145.317 10.3792 145.036 10.3792C144.826 10.3792 144.616 10.7971 144.335 11.2151L136.694 23.5445C136.204 24.3804 135.643 25.2859 133.75 25.2859C131.086 25.2859 131.016 23.1962 131.016 22.0817V6.47834H134.521L134.451 20.2706C134.451 20.6885 134.451 21.1065 134.802 21.1065C135.012 21.1065 135.152 20.7582 135.292 20.5492L142.793 8.28944C143.774 6.61765 144.616 6.19971 145.877 6.19971C148.681 6.19971 148.751 8.63773 148.751 9.54328V24.9377H145.176V25.077Z" fill="#006FBA"/>
<path fill-rule="evenodd" clip-rule="evenodd" d="M166.206 23.0565C165.575 24.7283 165.085 25.2856 163.543 25.2856C162.07 25.2856 161.51 24.798 160.879 23.0565L156.112 10.6575C156.042 10.4485 155.832 10.0306 155.691 10.0306C155.411 10.0306 155.411 10.5182 155.411 10.5878L155.481 25.007H151.976V8.70706C151.976 6.26904 154.43 6.26904 154.99 6.26904C156.322 6.26904 157.444 6.61733 158.285 8.6374L163.122 21.0365C163.262 21.4544 163.472 21.7331 163.613 21.7331C163.753 21.7331 163.963 21.4544 164.103 21.0365L168.94 8.6374C169.711 6.54767 170.833 6.26904 172.235 6.26904C173.987 6.26904 175.249 7.03528 175.249 8.70706V25.007H171.744L171.884 10.5878C171.884 10.1002 171.674 10.0306 171.534 10.0306C171.324 10.0306 171.183 10.4485 171.113 10.6575L166.206 23.0565Z" fill="#006FBA"/>
<path fill-rule="evenodd" clip-rule="evenodd" d="M182.96 8.4286C183.591 6.89613 184.362 6.33887 186.044 6.33887C187.657 6.33887 188.428 6.89613 189.129 8.4286L196.139 25.0768H192.424L190.531 20.4097H181.558L179.665 25.0768H175.95L182.96 8.4286ZM182.469 17.9021H189.62L186.605 10.379C186.535 10.1004 186.325 9.61278 186.044 9.61278C185.834 9.61278 185.624 10.1004 185.484 10.379L182.469 17.9021Z" fill="#006FBA"/>
<path fill-rule="evenodd" clip-rule="evenodd" d="M200.205 25.0773V9.33465H192.914V6.54834H211V9.33465H203.71V25.0773H200.205Z" fill="#006FBA"/>
<path fill-rule="evenodd" clip-rule="evenodd" d="M13.318 16.9957C13.1778 16.926 13.1077 16.7867 12.8974 16.6474C11.9861 15.8115 9.8831 14.0004 7.35951 14.0004C6.93892 14.0004 6.16782 14.0701 5.32663 14.3487C4.41533 14.6273 3.15353 15.1846 3.15353 15.1846C3.15353 15.1846 4.41533 13.7218 5.04623 13.2342C5.88742 12.6072 7.21932 11.632 9.4625 11.5624C9.25221 10.7265 9.11201 9.82093 9.11201 8.91538C9.11201 5.15386 11.215 1.87995 14.3695 0.208161C14.2293 0.138503 14.0891 0.0688477 13.9489 0.0688477H3.78443C1.82164 0.0688477 0.209351 1.67098 0.209351 3.62139V28.4196C0.209351 28.9072 0.629951 29.3251 1.12065 29.3251H14.0891C14.5798 29.3251 15.0004 28.9072 15.0004 28.4196V18.1102C14.4396 17.9012 13.8788 17.4833 13.318 16.9957Z" fill="#006FBA"/>
<path fill-rule="evenodd" clip-rule="evenodd" d="M15.9827 14.0012C17.9455 15.3944 19.4877 16.0909 20.8196 16.2302C21.5206 16.2999 22.2917 16.2302 22.7824 16.1606C23.0628 16.0909 23.4133 16.0213 23.6236 15.9516C23.904 15.882 24.1844 15.8123 24.3246 15.673C24.605 15.5337 24.8153 15.3944 25.0256 15.3247C25.1658 15.255 25.306 15.1157 25.5163 14.9764C25.5864 14.9068 25.9369 14.6281 26.007 14.4888C26.1472 14.3495 26.3575 14.0709 26.4977 13.9315C27.5492 12.4687 28.11 10.7969 28.11 8.91619C28.11 4.04014 24.1143 0 19.1372 0C14.2302 0 10.1644 3.97049 10.1644 8.91619C10.1644 9.82174 10.3046 10.7273 10.585 11.5632C12.1973 11.7722 14.0199 12.608 15.9827 14.0012Z" fill="#EE2E24"/>
<path fill-rule="evenodd" clip-rule="evenodd" d="M10.0242 12.3989C7.71094 12.3989 5.81824 13.4438 4.90695 13.9314C4.83685 13.9314 4.90695 14.0011 4.90695 13.9314C5.95844 13.5135 6.93984 13.3741 7.85114 13.3741C11.1458 13.3741 13.0385 15.6032 13.8096 16.2301C15.9126 17.9715 17.8053 18.2502 19.6279 18.2502C20.9598 18.2502 22.3618 17.7626 23.4834 17.066C24.2545 16.5784 25.1658 15.7425 25.306 15.5335C25.3761 15.3942 25.306 15.4639 25.306 15.5335C24.6751 16.0908 23.4133 16.648 22.2216 16.7874C21.0299 16.9267 20.7495 16.857 20.3289 16.857C18.7166 16.7177 17.5249 16.2301 15.492 14.628C13.2488 13.0258 11.3561 12.3989 10.0242 12.3989Z" fill="#006FBA"/>
<path fill-rule="evenodd" clip-rule="evenodd" d="M30.3532 0.417624V27.9324C30.3532 28.9773 29.9326 29.8828 29.2316 30.5097C28.5306 31.2063 27.6193 31.6243 26.6379 31.6243H0.350498C0.210299 31.6243 0 31.4849 0 31.276C0 31.1367 0.140199 30.9277 0.350498 30.9277H26.708C27.5492 30.9277 28.3203 30.5794 28.8811 30.0221C29.4419 29.4649 29.7924 28.6986 29.7924 27.8628V0.417624C29.7924 0.278309 29.9326 0.0693359 30.1429 0.0693359C30.213 0.138994 30.3532 0.278309 30.3532 0.417624Z" fill="#006FBA"/>
</svg>
