<svg width="24" height="24" viewBox="0 0 24 24" fill="none" xmlns="http://www.w3.org/2000/svg">
<path d="M15.9089 12.123L23.9999 17.238V6.79199L15.9089 12.123Z" fill="#11181D"/>
<path d="M0 6.79199V17.238L8.091 12.123L0 6.79199Z" fill="#11181D"/>
<path d="M23.9549 3.75C23.2064 3.75 0.0448623 3.75 0.0448623 3.75C0.0448623 4.22222 -7.25668e-05 4.44444 0.0448997 5.0265L11.9999 12.903L23.9549 5.0265C23.9549 4.30556 23.9549 4.22222 23.9549 3.75Z" fill="#11181D"/>
<path d="M14.5349 13.029L12.4124 14.427C12.2864 14.5095 12.1439 14.55 11.9999 14.55C11.8559 14.55 11.7134 14.5095 11.5874 14.427L9.46485 13.0275L0.047853 18.984C0.0478473 19.7777 0.0478612 19.5555 0.047853 20.25H23.9519C23.9519 19.7777 23.9519 19.7777 23.9519 18.984L14.5349 13.029Z" fill="#11181D"/>
</svg>
