<svg width="24" height="24" viewBox="0 0 24 24" fill="none" xmlns="http://www.w3.org/2000/svg">
<path d="M15.9092 12.123L24.0002 17.238V6.79199L15.9092 12.123Z" fill="#97A9B6"/>
<path d="M0 6.79199V17.238L8.091 12.123L0 6.79199Z" fill="#97A9B6"/>
<path d="M23.9549 3.75C23.2064 3.75 0.0448623 3.75 0.0448623 3.75C0.0448623 4.22222 -7.25668e-05 4.44444 0.0448997 5.0265L11.9999 12.903L23.9549 5.0265C23.9549 4.30556 23.9549 4.22222 23.9549 3.75Z" fill="#97A9B6"/>
<path d="M14.5349 13.0288L12.4124 14.4268C12.2864 14.5093 12.1439 14.5498 11.9999 14.5498C11.8559 14.5498 11.7134 14.5093 11.5874 14.4268L9.46485 13.0273L0.047853 18.9838C0.0478473 19.7776 0.0478612 19.5553 0.047853 20.2498H23.9519C23.9519 19.7776 23.9519 19.7776 23.9519 18.9838L14.5349 13.0288Z" fill="#97A9B6"/>
</svg>
