<svg width="31" height="31" viewBox="0 0 31 31" fill="none" xmlns="http://www.w3.org/2000/svg">
<path fill-rule="evenodd" clip-rule="evenodd" d="M11.3138 19.0919C14.8285 22.6066 20.527 22.6066 24.0417 19.0919C27.5564 15.5772 27.5564 9.87868 24.0417 6.36396C20.527 2.84924 14.8285 2.84924 11.3138 6.36396C7.79905 9.87868 7.79905 15.5772 11.3138 19.0919ZM12.728 17.6777C15.4617 20.4113 19.8938 20.4113 22.6275 17.6777C25.3612 14.944 25.3612 10.5118 22.6275 7.77817C19.8938 5.0445 15.4617 5.0445 12.728 7.77817C9.99432 10.5118 9.99432 14.944 12.728 17.6777Z" fill="#11181D"/>
<rect x="12.021" y="16.9707" width="2" height="9" transform="rotate(45 12.021 16.9707)" fill="#11181D"/>
</svg>
