<svg width="32" height="26" viewBox="0 0 32 26" fill="none" xmlns="http://www.w3.org/2000/svg">
<path d="M31.2604 3.51724C30.0979 4.01933 28.8592 4.35214 27.5678 4.51373C28.8964 3.7327 29.9104 2.50537 30.3871 1.02603C29.1484 1.75319 27.7807 2.26683 26.3232 2.55346C25.1471 1.32036 23.4707 0.556641 21.642 0.556641C18.0939 0.556641 15.2375 3.3922 15.2375 6.86836C15.2375 7.36853 15.2805 7.84946 15.386 8.3073C10.058 8.05145 5.34358 5.53715 2.17651 1.70702C1.62359 2.65157 1.29926 3.7327 1.29926 4.89655C1.29926 7.08189 2.44222 9.01908 4.14591 10.1406C3.11627 10.1214 2.10617 9.82704 1.25042 9.36342C1.25042 9.38266 1.25042 9.40767 1.25042 9.43268C1.25042 12.4991 3.47186 15.0461 6.38494 15.6328C5.86328 15.7733 5.29473 15.8406 4.70469 15.8406C4.2944 15.8406 3.8802 15.8175 3.4914 15.7329C4.32175 18.2318 6.67801 20.0689 9.47972 20.1286C7.29931 21.808 4.53081 22.8198 1.53371 22.8198C1.00815 22.8198 0.504074 22.7967 0 22.7333C2.83884 24.5358 6.20324 25.565 9.8314 25.565C21.6244 25.565 28.0719 15.9464 28.0719 7.60899C28.0719 7.33005 28.0621 7.06073 28.0484 6.79334C29.3203 5.90458 30.389 4.79459 31.2604 3.51724Z" fill="#11181D"/>
</svg>
