<svg width="36" height="25" viewBox="0 0 36 25" fill="none" xmlns="http://www.w3.org/2000/svg">
<path d="M34.6339 2.38101C33.3688 0.877122 31.033 0.263672 26.5722 0.263672H10.3796C5.81668 0.263672 3.44134 0.916693 2.18097 2.51781C0.952148 4.07891 0.952148 6.37907 0.952148 9.56255V15.6302C0.952148 21.7976 2.41014 24.929 10.3796 24.929H26.5724C30.4407 24.929 32.5843 24.3877 33.9711 23.0605C35.3932 21.6995 36 19.4774 36 15.6302V9.56255C36 6.2053 35.9049 3.89158 34.6339 2.38101ZM23.453 13.4341L16.0999 17.277C15.9356 17.363 15.7558 17.4056 15.5763 17.4056C15.373 17.4056 15.1702 17.3509 14.9905 17.2421C14.6522 17.0371 14.4457 16.6705 14.4457 16.275V8.61377C14.4457 8.21897 14.6517 7.85266 14.9893 7.64758C15.327 7.44249 15.747 7.42847 16.0973 7.61049L23.4504 11.4287C23.8245 11.6229 24.0594 12.0091 24.06 12.4305C24.0604 12.8522 23.8265 13.239 23.453 13.4341Z" fill="#11181D"/>
</svg>
