<svg width="68" height="47" viewBox="0 0 68 47" fill="none" xmlns="http://www.w3.org/2000/svg"><path fill-rule="evenodd" clip-rule="evenodd" d="M33.433 0h1.134C47.877 0 68 5.352 68 13.418V36.3c0 6.35-8.963 9.733-15.434 9.733-.65 0-1.178-.528-1.178-1.178V28.41A59.403 59.403 0 0 0 34 25.653c-5.905 0-11.773.93-17.388 2.755v16.447c0 .65-.528 1.178-1.178 1.178C8.963 46.033 0 42.65 0 36.3V13.42C0 5.352 20.123 0 33.433 0zM14.254 43.638V23.129a24.798 24.798 0 0 1-1.453-.112l-.096-.01a21.792 21.792 0 0 1-2.968-.519 2.98 2.98 0 0 0-.107-.024c-.412-.105-.81-.223-1.199-.349l-.061-.02c-.061-.02-.123-.039-.184-.06a18.256 18.256 0 0 1-1.099-.408l-.092-.04a16.506 16.506 0 0 1-1.092-.502l-.085-.04a15.701 15.701 0 0 1-1.979-1.217c-.019-.013-.036-.027-.054-.041a13.45 13.45 0 0 1-.8-.652c-.029-.023-.056-.047-.083-.071a9.979 9.979 0 0 1-.545-.52v17.76c0 4.248 6.583 6.972 11.897 7.334zm39.49-.003c5.315-.361 11.9-3.085 11.9-7.335l-.004-17.752c-.171.177-.355.35-.544.52l-.088.076-.045.038c-.223.196-.459.387-.707.573l-.038.03c-.02.015-.041.032-.063.047-.268.197-.55.386-.846.57l-.2.124a15.425 15.425 0 0 1-1.018.563l-.06.03c-.306.153-.622.299-.948.437l-.177.075c-.353.145-.72.28-1.096.407-.082.029-.165.055-.25.082-.387.125-.782.243-1.195.348l-.044.01-.067.015a21.328 21.328 0 0 1-1.294.278l-.159.03a23.766 23.766 0 0 1-1.608.221c-.473.05-.953.09-1.448.112v20.5zm-22.05-29.932c-.51-.562-1.243-.92-2.2-1.077l2.465-2.809V8.178h-7.647v2.03h4.65l-2.247 2.543v1.67h1.155c1.363 0 2.045.447 2.045 1.342 0 .448-.182.796-.546 1.046-.365.24-.864.359-1.499.359a5.803 5.803 0 0 1-1.685-.25 4.919 4.919 0 0 1-1.436-.733l-.983 1.935c.52.374 1.15.666 1.888.874.75.198 1.509.296 2.279.296.988 0 1.82-.16 2.497-.483.686-.323 1.196-.75 1.53-1.28.332-.541.499-1.13.499-1.764 0-.822-.255-1.508-.765-2.06zm7.582-5.524h-4.963v10.924h4.963c1.186 0 2.231-.224 3.136-.671.916-.458 1.624-1.098 2.123-1.92.51-.822.765-1.779.765-2.871 0-1.093-.255-2.05-.765-2.872-.5-.822-1.207-1.456-2.122-1.904-.906-.458-1.951-.687-3.137-.687zm2.481 7.943c-.645.604-1.514.905-2.606.905h-2.31v-6.773h2.31c1.092 0 1.96.307 2.606.921.656.603.983 1.425.983 2.466 0 1.04-.328 1.867-.983 2.481z" fill="#11181D"/><path d="M27.919 34.256h-2.84v6.398h-2.42v-6.398h-2.84v-1.998h8.1v1.998zm9.786-1.998l-3.793 8.911c-.385.968-.863 1.65-1.436 2.045-.561.395-1.243.593-2.044.593a4.26 4.26 0 0 1-1.295-.203c-.427-.135-.776-.322-1.046-.562l.89-1.732a2.113 2.113 0 0 0 1.373.53c.333 0 .603-.083.811-.25.209-.155.396-.42.562-.795l.032-.078-3.637-8.459h2.513l2.356 5.697 2.373-5.697h2.34zm6.121-.125c.78 0 1.488.182 2.123.546a3.79 3.79 0 0 1 1.514 1.514c.364.645.546 1.4.546 2.263 0 .864-.182 1.623-.546 2.279a3.92 3.92 0 0 1-1.514 1.514 4.284 4.284 0 0 1-2.123.53c-1.071 0-1.914-.338-2.528-1.014v3.917h-2.434V32.258h2.325v.968c.603-.728 1.483-1.093 2.637-1.093zm-.421 6.649c.624 0 1.134-.208 1.53-.625.405-.426.608-.993.608-1.7 0-.708-.203-1.27-.609-1.686-.395-.427-.905-.64-1.529-.64-.624 0-1.14.213-1.545.64-.395.416-.593.978-.593 1.685 0 .708.198 1.275.593 1.701.406.417.92.625 1.545.625z" fill="#11181D"/></svg>