<svg width="46" height="52" viewBox="0 0 46 52" fill="none" xmlns="http://www.w3.org/2000/svg"><path d="M10.065 8.614h20.458v-6.46h-7.05A4.306 4.306 0 0 0 19.756 0c-1.546 0-2.957.84-3.717 2.153H9.11c0 2.154-.12 1.45-.12 3.23v3.23h1.076z" fill="#fff"/><path d="M39.137 25.55V4.307h-6.46v6.46H6.835v-6.46H.375v44.146c0 1.78.12 1.316.12 3.23h19.082v-7.178l18.352-17.718c.465-.459.58-.594 1.208-1.237zm6.146 7.067l-5.069-5.07c-.232.242-.34.343-.76.762l-3.545 3.545 5.83 5.83L46 33.422c-.425-.507-.297-.342-.717-.805z" fill="#fff"/><path d="M22.224 45.537c-.2.203-.315.476-.315.762v4.307c0 .595.483 1.077 1.077 1.077h4.307c.287 0 .56-.114.762-.314L40.214 39.21l-5.83-5.83-12.16 12.157z" fill="#fff"/></svg>