<svg width="65" height="55" viewBox="0 0 65 55" fill="none" xmlns="http://www.w3.org/2000/svg"><path d="M50.736 19.008v24.596H29.273v5.699h16.312l5.781 5.6 5.78-5.6H64.5V19.008H50.736zM29.48 20.484c0-3.065-2.574-5.558-5.737-5.558-3.163 0-5.737 2.493-5.737 5.558 0 3.064 2.574 5.557 5.737 5.557 3.163 0 5.737-2.493 5.737-5.557z" fill="#fff"/><path d="M46.986 39.97V.997H.5v38.975h7.354l5.78 5.6 5.78-5.6h27.572zM21.868 32.7v-3.208a9.605 9.605 0 0 1-3.372-1.357l-2.345 2.272-2.652-2.569 2.346-2.272a8.976 8.976 0 0 1-1.402-3.266h-3.312v-3.633h3.312a8.995 8.995 0 0 1 1.402-3.266l-2.346-2.272 2.652-2.569 2.345 2.272a9.603 9.603 0 0 1 3.372-1.357V8.266h3.75v3.209a9.6 9.6 0 0 1 3.372 1.357l2.345-2.272 2.651 2.569-2.344 2.272a8.982 8.982 0 0 1 1.4 3.266h3.313V22.3h-3.313a8.988 8.988 0 0 1-1.4 3.266l2.344 2.272-2.651 2.569-2.345-2.272a9.592 9.592 0 0 1-3.372 1.357v3.209h-3.75z" fill="#fff"/></svg>