<svg width="16" height="29" viewBox="0 0 16 29" fill="none" xmlns="http://www.w3.org/2000/svg"><path d="M15.31.437L11.561.432c-4.211 0-6.933 2.717-6.933 6.924v3.192H.858a.582.582 0 0 0-.59.574v4.625c0 .317.265.574.59.574h3.77v11.671c0 .317.263.574.59.574h4.917c.326 0 .59-.257.59-.574V16.321h2.844c.326 0 .59-.257.59-.574l1.564-4.625a.567.567 0 0 0-.172-.406.598.598 0 0 0-.417-.168h-4.41V7.842c0-1.301.32-1.961 2.06-1.961l2.526-.001a.582.582 0 0 0 .589-.574V1.011a.582.582 0 0 0-.589-.574z" fill="#11181D"/></svg>