<svg width="211" height="32" viewBox="0 0 211 32" fill="none" xmlns="http://www.w3.org/2000/svg"><path fill-rule="evenodd" clip-rule="evenodd" d="M39.396 25.077V9.335c0-.697 0-1.394.63-2.09.632-.627 1.473-.697 2.104-.697h8.902c.982 0 2.594 0 3.716 1.115 1.262 1.184 1.402 3.274 1.402 4.876 0 1.532-.14 3.9-1.612 5.085-.701.557-1.753.905-2.875.905h-8.762v6.548h-3.505zm10.235-9.334c.77 0 1.682 0 2.313-.696.56-.627.63-1.812.63-2.508 0-.836-.07-1.95-.7-2.577-.631-.627-1.613-.627-2.173-.627h-5.678c-.21 0-.561 0-.842.209-.21.209-.21.557-.21.905v5.294h6.66zm12.197 9.334l2.243-4.11L56.15 6.549h3.855l5.889 11.215 5.678-11.215h3.855l-9.814 18.53h-3.785zm21.45-.001c-1.752 0-4.206-.209-5.958-2.159-1.753-1.95-1.893-4.806-1.893-6.826 0-2.647.21-5.364 1.823-7.175 1.892-2.16 4.766-2.299 6.098-2.299h7.501v2.786h-5.818c-2.103 0-3.856.14-4.907 1.742-.56.836-1.052 2.229-1.052 4.946 0 2.786.491 3.9.912 4.527.981 1.463 2.663 1.742 4.907 1.742H91.2v2.786h-7.922v-.07zM93.513 6.548h3.505v18.53h-3.505V6.547zm13.389 18.53l-7.64-7.106c-1.123-.975-1.263-1.88-1.263-2.368 0-.348.14-1.184.982-2.09l7.08-6.966h4.346l-8.061 7.593c-.631.557-.982 1.045-.982 1.463 0 .557.631 1.184 1.192 1.672l8.832 7.801h-4.486z" fill="#006FBA"/><path fill-rule="evenodd" clip-rule="evenodd" d="M117.277 8.08c.35-.836.911-1.741 2.874-1.741s2.453.905 2.874 1.741l7.22 16.997h-3.715l-5.888-14.837c-.071-.21-.141-.558-.421-.558s-.351.349-.421.558l-5.888 14.837h-3.715l7.08-16.997zm27.899 16.997l.141-14.07c0-.28 0-.628-.281-.628-.21 0-.42.418-.701.836l-7.641 12.33c-.49.835-1.051 1.74-2.944 1.74-2.664 0-2.734-2.089-2.734-3.203V6.478h3.505l-.07 13.793c0 .418 0 .835.351.835.21 0 .35-.348.49-.557l7.501-12.26c.981-1.671 1.823-2.09 3.084-2.09 2.804 0 2.874 2.439 2.874 3.344v15.395h-3.575v.139zm21.03-2.021c-.631 1.672-1.121 2.23-2.663 2.23-1.473 0-2.033-.488-2.664-2.23l-4.767-12.399c-.07-.209-.28-.626-.421-.626-.28 0-.28.487-.28.557l.07 14.419h-3.505v-16.3c0-2.438 2.454-2.438 3.014-2.438 1.332 0 2.454.348 3.295 2.368l4.837 12.4c.14.417.35.696.491.696.14 0 .35-.279.49-.697l4.837-12.399c.771-2.09 1.893-2.368 3.295-2.368 1.752 0 3.014.766 3.014 2.438v16.3h-3.505l.14-14.42c0-.487-.21-.556-.35-.556-.21 0-.351.417-.421.627l-4.907 12.399zM182.96 8.429c.631-1.533 1.402-2.09 3.084-2.09 1.613 0 2.384.557 3.085 2.09l7.01 16.648h-3.715l-1.893-4.667h-8.973l-1.893 4.667h-3.715l7.01-16.648zm-.491 9.473h7.151l-3.015-7.523c-.07-.279-.28-.766-.561-.766-.21 0-.42.487-.56.766l-3.015 7.523zm17.736 7.175V9.335h-7.291V6.548H211v2.787h-7.29v15.742h-3.505zM13.318 16.996c-.14-.07-.21-.21-.42-.349C11.985 15.812 9.882 14 7.36 14a6.8 6.8 0 0 0-2.033.349c-.912.278-2.173.836-2.173.836s1.261-1.463 1.892-1.95c.841-.628 2.173-1.603 4.417-1.673a10.96 10.96 0 0 1-.351-2.647c0-3.761 2.103-7.035 5.258-8.707-.14-.07-.28-.14-.421-.14H3.784C1.822.069.21 1.672.21 3.622V28.42c0 .487.421.905.912.905H14.09c.49 0 .911-.418.911-.905V18.11c-.56-.209-1.121-.627-1.682-1.114z" fill="#006FBA"/><path fill-rule="evenodd" clip-rule="evenodd" d="M15.983 14.001c1.962 1.393 3.505 2.09 4.837 2.23.7.069 1.472 0 1.962-.07.28-.07.631-.14.842-.21.28-.069.56-.139.7-.278.281-.14.491-.279.702-.348.14-.07.28-.21.49-.349.07-.07.42-.348.491-.487.14-.14.35-.418.49-.558a8.405 8.405 0 0 0 1.613-5.015C28.11 4.04 24.114 0 19.137 0c-4.907 0-8.973 3.97-8.973 8.916 0 .906.14 1.811.421 2.647 1.612.21 3.435 1.045 5.398 2.438z" fill="#EE2E24"/><path fill-rule="evenodd" clip-rule="evenodd" d="M10.024 12.399c-2.313 0-4.206 1.045-5.117 1.532-.07 0 0 .07 0 0a7.833 7.833 0 0 1 2.944-.557c3.295 0 5.188 2.23 5.959 2.856 2.103 1.741 3.995 2.02 5.818 2.02 1.332 0 2.734-.487 3.855-1.184.771-.488 1.683-1.323 1.823-1.532.07-.14 0-.07 0 0-.63.557-1.893 1.114-3.084 1.253-1.192.14-1.473.07-1.893.07-1.612-.14-2.804-.627-4.837-2.229-2.243-1.602-4.136-2.23-5.468-2.23z" fill="#006FBA"/><path fill-rule="evenodd" clip-rule="evenodd" d="M30.353.418v27.514c0 1.045-.42 1.95-1.121 2.578-.701.696-1.613 1.114-2.594 1.114H.35c-.14 0-.35-.14-.35-.348 0-.14.14-.348.35-.348h26.358c.841 0 1.612-.349 2.173-.906.56-.557.911-1.323.911-2.16V.419c0-.14.14-.349.35-.349.071.07.211.21.211.349z" fill="#006FBA"/></svg>