<svg width="32" height="26" viewBox="0 0 32 26" fill="none" xmlns="http://www.w3.org/2000/svg"><path d="M31.26 3.517a13.525 13.525 0 0 1-3.692.997 6.293 6.293 0 0 0 2.82-3.488 12.93 12.93 0 0 1-4.065 1.527A6.469 6.469 0 0 0 21.642.557c-3.548 0-6.404 2.835-6.404 6.311 0 .5.043.981.148 1.44a18.235 18.235 0 0 1-13.21-6.601 6.278 6.278 0 0 0-.877 3.19c0 2.185 1.143 4.122 2.847 5.244a6.404 6.404 0 0 1-2.896-.778v.07c0 3.066 2.222 5.613 5.135 6.2a6.51 6.51 0 0 1-1.68.208c-.41 0-.825-.023-1.214-.108a6.458 6.458 0 0 0 5.989 4.396 13.005 13.005 0 0 1-7.946 2.69c-.526 0-1.03-.022-1.534-.086 2.839 1.803 6.203 2.832 9.831 2.832 11.793 0 18.24-9.619 18.24-17.956 0-.279-.009-.548-.023-.816a12.679 12.679 0 0 0 3.212-3.276z" fill="#11181D"/></svg>