<svg width="36" height="25" viewBox="0 0 36 25" fill="none" xmlns="http://www.w3.org/2000/svg"><path d="M34.634 2.381C33.369.877 31.033.264 26.572.264H10.38c-4.563 0-6.94.653-8.2 2.254C.952 4.078.952 6.379.952 9.563v6.067c0 6.168 1.458 9.299 9.428 9.299h16.192c3.869 0 6.012-.541 7.4-1.868C35.392 21.7 36 19.477 36 15.63V9.562c0-3.358-.095-5.671-1.366-7.182zM23.453 13.434L16.1 17.277a1.128 1.128 0 0 1-1.11-.035 1.13 1.13 0 0 1-.544-.967V8.614a1.13 1.13 0 0 1 1.651-1.004l7.353 3.819a1.13 1.13 0 0 1 .003 2.005z" fill="#11181D"/></svg>